<svg id="Livello_1" data-name="Livello 1" xmlns="http://www.w3.org/2000/svg" width="104" height="110" viewBox="0 0 104 110"><defs><style>.cls-1{fill:#c00;}</style></defs><title>工作區域 1</title><path class="cls-1" d="M72,47.14c-29.4,4.6-43.62,12.4-50.57,19.78-5.34,5.66-3.42,9.94-2,12.4A115.06,115.06,0,0,0,35.56,99.09c2.14,2.14,8.66,8.24,11.55,9.73A12,12,0,0,0,52,110a10.39,10.39,0,0,0,4.91-1.18c2.89-1.39,9.52-7.59,11.55-9.73C79.28,88.3,86,78.57,93.29,63.39a111.27,111.27,0,0,0,6.84-18.81v-.11A211.07,211.07,0,0,0,72,47.14M18.14,20.42H17.6l-1.71,8.23h.54a2.56,2.56,0,0,0,2.14-1,7.86,7.86,0,0,0,1.17-3.1c.32-1.5.43-2.57.11-3.1A1.57,1.57,0,0,0,18.14,20.42ZM95.85,9.62C81.42,2.57,66.14,0,52,0S22.63,2.57,8.2,9.62C3.07,12.19.5,16.89.5,23.84a38,38,0,0,0,.32,4.7l.11.75a118.53,118.53,0,0,0,4.92,22c3.84-4.92,19-9.09,46.07-10.58,25.55-1.39,43.72-1.28,49.28-1.18,1-4.7,1.49-8.34,1.82-10.37l.1-.85C104.51,19,102.05,12.72,95.85,9.62ZM25.73,24.69a9,9,0,0,1-9.09,7.38H9.27l3.2-15h7.06C25.51,17,26.69,20.2,25.73,24.69Zm7,7.7c-4.49,0-6.74-1.82-6-5.45L28.83,17h6l-2,9.72c-.21,1.18.22,1.61.86,1.61s1.28-.43,1.5-1.61l2-9.72h5.88l-2.14,9.94C40.27,30.57,37.27,32.39,32.68,32.39Zm16.35,0c-5.24,0-7-3.21-6-7.91a9,9,0,0,1,9.4-7.8c3.74,0,6.63,1.49,5.78,6H52.77c.32-1.71-.32-2-1-2-1.5,0-2,1.6-2.56,4s-.75,3.95.74,3.95c.75,0,1.39-.43,1.82-2h5.56C56.41,30.57,52.67,32.39,49,32.39ZM67,32l-.11-2.46H62.61L61.54,32H55.87l8-15h7.7l1.6,15Zm13.9,0h-6l2.35-10.9H73.51L74.37,17H87.73l-.86,4.06H83.13Zm10.69,0h-6L88.8,17h6ZM64.21,25.87h2.57V20.2h0Z"/></svg>