<svg id="圖層_1" data-name="圖層 1" xmlns="http://www.w3.org/2000/svg" xmlns:xlink="http://www.w3.org/1999/xlink" width="2500" height="50" viewBox="0 0 2500 50"><defs><style>.cls-1{fill:none;}.cls-2{fill:#c00000;}.cls-3{fill:#fff;}.cls-4{fill:#898f9c;}.cls-5{clip-path:url(#clip-path);}.cls-6{fill:#1877f2;}.cls-7{fill:#0084ff;}.cls-8{fill:#888;}</style><clipPath id="clip-path"><rect class="cls-1" x="301.51" y="2.21" width="46" height="46"/></clipPath></defs><path d="M370.89,43.36,356.82,27.13a3.34,3.34,0,1,1,5.05-4.38l9,10.37,18.76-21.89a3.34,3.34,0,1,1,5.07,4.35Z"/><path class="cls-2" d="M421.38,36l-9.29-10.73a2.2,2.2,0,1,1,3.33-2.89l5.94,6.85,12.4-14.46a2.21,2.21,0,1,1,3.35,2.88Z"/><path d="M10.4,21a1.5,1.5,0,0,1,.4-1.1,1.75,1.75,0,0,1,2.5-.1l11.1,9.6,11.2-9.6a1.59,1.59,0,0,1,2.3.1,1.72,1.72,0,0,1-.1,2.4L25.5,33a2,2,0,0,1-2.3,0L10.8,22.43A2.5,2.5,0,0,1,10.4,21Z"/><path class="cls-3" d="M560.4,21a1.5,1.5,0,0,1,.4-1.1,1.75,1.75,0,0,1,2.5-.1l11.1,9.6,11.2-9.6a1.59,1.59,0,0,1,2.3.1,1.72,1.72,0,0,1-.1,2.4L575.5,33a2,2,0,0,1-2.3,0l-12.4-10.6A2.5,2.5,0,0,1,560.4,21Z"/><path d="M68.42,42.15a1.86,1.86,0,0,1-1.3-.49A2.05,2.05,0,0,1,67,38.73L78.69,25.52,67,12.16a1.87,1.87,0,0,1,.16-2.77,2.07,2.07,0,0,1,2.93.16l13,14.67a2.21,2.21,0,0,1,0,2.77l-13,14.67A3.2,3.2,0,0,1,68.42,42.15Z"/><path d="M131.08,8.85a1.86,1.86,0,0,1,1.3.49,2.05,2.05,0,0,1,.16,2.93L120.81,25.48l11.73,13.36a1.87,1.87,0,0,1-.16,2.77,2.07,2.07,0,0,1-2.93-.16l-13-14.67a2.21,2.21,0,0,1,0-2.77l13-14.67A3.2,3.2,0,0,1,131.08,8.85Z"/><path class="cls-3" d="M167.92,42.15a1.86,1.86,0,0,1-1.3-.49,2.05,2.05,0,0,1-.16-2.93l11.73-13.21L166.46,12.16a1.87,1.87,0,0,1,.16-2.77,2.07,2.07,0,0,1,2.93.16l13,14.67a2.21,2.21,0,0,1,0,2.77l-13,14.67A3.2,3.2,0,0,1,167.92,42.15Z"/><path class="cls-3" d="M231.08,8.85a1.86,1.86,0,0,1,1.3.49,2.05,2.05,0,0,1,.16,2.93L220.81,25.48l11.73,13.36a1.87,1.87,0,0,1-.16,2.77,2.07,2.07,0,0,1-2.93-.16l-13-14.67a2.21,2.21,0,0,1,0-2.77l13-14.67A3.2,3.2,0,0,1,231.08,8.85Z"/><path class="cls-4" d="M297.58,25.21A23,23,0,1,0,271,47.93V31.86h-5.84V25.21H271V20.14c0-5.76,3.43-9,8.69-9a35.46,35.46,0,0,1,5.15.45V17.3h-2.9c-2.86,0-3.75,1.78-3.75,3.6v4.31h6.38l-1,6.65h-5.36V47.93A23,23,0,0,0,297.58,25.21Z"/><path class="cls-3" d="M283.54,31.86l1-6.65h-6.38V20.9c0-1.82.89-3.6,3.75-3.6h2.9V11.64a35.46,35.46,0,0,0-5.15-.45c-5.26,0-8.69,3.19-8.69,9v5.07h-5.84v6.65H271V47.93a23.22,23.22,0,0,0,7.19,0V31.86Z"/><g class="cls-5"><path class="cls-6" d="M347.51,25.21a23,23,0,1,0-26.6,22.72V31.86h-5.84V25.21h5.84V20.14c0-5.76,3.43-9,8.69-9a35.46,35.46,0,0,1,5.15.45V17.3h-2.9c-2.86,0-3.75,1.77-3.75,3.59v4.32h6.38l-1,6.65H328.1V47.93a23,23,0,0,0,19.41-22.72Z"/></g><path class="cls-3" d="M333.46,31.86l1-6.65H328.1V20.89c0-1.82.89-3.59,3.75-3.59h2.9V11.64a35.46,35.46,0,0,0-5.15-.45c-5.26,0-8.69,3.19-8.69,9v5.07h-5.84v6.65h5.84V47.93a23.22,23.22,0,0,0,7.19,0V31.86Z"/><path d="M491.66,47.55a2.33,2.33,0,0,1-1.92-.86L474.59,29.83,459.43,46.69a2.72,2.72,0,1,1-4.06-3.63L471,25.77,455.59,8.27a2.45,2.45,0,0,1,.21-3.63,2.72,2.72,0,0,1,3.84.21l14.95,16.87L489.74,4.85a2.72,2.72,0,0,1,4.06,3.63L478.21,25.77,493.8,43.28a2.71,2.71,0,0,1-.22,3.84A6.33,6.33,0,0,1,491.66,47.55Z"/><path class="cls-2" d="M841.66,47.55a2.33,2.33,0,0,1-1.92-.86L824.59,29.83,809.43,46.69a2.72,2.72,0,1,1-4.06-3.63L821,25.77,805.59,8.27a2.45,2.45,0,0,1,.21-3.63,2.72,2.72,0,0,1,3.84.21l15,16.87L839.74,4.85a2.72,2.72,0,0,1,4.06,3.63L828.21,25.77,843.8,43.28a2.71,2.71,0,0,1-.22,3.84A6.33,6.33,0,0,1,841.66,47.55Z"/><path class="cls-3" d="M524.49,35.76a1.71,1.71,0,0,1-1.69-1.7V5.21a1.7,1.7,0,1,1,3.39,0V33.92A1.61,1.61,0,0,1,524.49,35.76Z"/><path class="cls-3" d="M524.5,35.76a1.61,1.61,0,0,1-1.13-.42L510.36,24a1.8,1.8,0,0,1,2.4-2.69l11.88,10.33,11.89-10.33a1.8,1.8,0,0,1,2.4,2.69l-13,11.32A3.2,3.2,0,0,1,524.5,35.76Zm19.81,11.32H504.7a1.72,1.72,0,0,1-1.7-1.7,1.83,1.83,0,0,1,1.7-1.7h39.61a1.7,1.7,0,0,1,0,3.4Z"/><polygon points="645.5 23.09 626.41 23.09 626.41 4 622.59 4 622.59 23.09 603.5 23.09 603.5 26.91 622.59 26.91 622.59 46 626.41 46 626.41 26.91 645.5 26.91 645.5 23.09"/><circle class="cls-3" cx="674.5" cy="26.13" r="23"/><path d="M679,26.13l-8.28,4.51v-9Z"/><path d="M739.77,26.6c-.63,1.86-1.87,3.73-4.36,3.73-1.87,0-3.73-1.87-4.35-3.73H706.79a.63.63,0,0,1,0-1.25h24.27a4.6,4.6,0,0,1,8.71,0h2.49c.62,0,1.24,0,1.24.63a.61.61,0,0,1-.62.62Zm-4.36-3.11A2.68,2.68,0,0,0,732.92,26a2.68,2.68,0,0,0,2.49,2.48A2.27,2.27,0,0,0,737.9,26,2.28,2.28,0,0,0,735.41,23.49Zm-16.8-11.2a4.6,4.6,0,0,1-8.71,0h-3.11l-.62-.63.62-.62h2.49c1.24-2.49,2.49-3.73,5-3.73a4.67,4.67,0,0,1,4.35,3.11h24.27a2.16,2.16,0,0,1,.62,1.24.61.61,0,0,1-.62.63Zm-4.35-3.11c-1.87,0-2.49.62-2.49,2.48,0,1.25.62,1.87,2.49,1.87A2.67,2.67,0,0,0,716.74,11C716.74,9.8,715.5,9.18,714.26,9.18ZM726.7,41.53a4.67,4.67,0,0,1-4.36,3.11c-2.48,0-4.35-1.24-4.35-3.11h-11.2a2.16,2.16,0,0,1-.62-1.24.61.61,0,0,1,.62-.63h10.58a4.6,4.6,0,0,1,8.71,0h16.18a2.15,2.15,0,0,1,1.24.63l-.62,1.24Zm-4.36-3.11c-1.86,0-3.11.62-3.11,1.87a2.69,2.69,0,0,0,2.49,2.49c1.87,0,3.11-.63,3.11-2.49C724.83,39,723.59,38.42,722.34,38.42Z"/><path class="cls-7" d="M1024.75,6c-10.78,0-19.53,8.15-19.53,18.19a17.71,17.71,0,0,0,7.28,14.17V45.3l6.65-3.67a21,21,0,0,0,5.6.76c10.79,0,19.53-8.15,19.53-18.2S1035.54,6,1024.75,6Zm1.94,24.5-5-5.34L1012,30.5l10.68-11.4,5.09,5.34,9.58-5.34Z"/><path class="cls-8" d="M1124.75,6c-10.78,0-19.53,8.15-19.53,18.19a17.71,17.71,0,0,0,7.28,14.17V45.3l6.65-3.67a21,21,0,0,0,5.6.76c10.79,0,19.53-8.15,19.53-18.2S1135.54,6,1124.75,6Zm1.94,24.5-5-5.34L1112,30.5l10.68-11.4,5.09,5.34,9.58-5.34Z"/><path class="cls-3" d="M1074.75,6c-10.78,0-19.53,8.15-19.53,18.19a17.71,17.71,0,0,0,7.28,14.17V45.3l6.65-3.67a21,21,0,0,0,5.6.76c10.79,0,19.53-8.15,19.53-18.2S1085.54,6,1074.75,6Zm1.94,24.5-5-5.34L1062,30.5l10.68-11.4,5.09,5.34,9.58-5.34Z"/></svg>